<?xml version="1.0" encoding="utf-8"?>
<!-- Generator: Adobe Illustrator 15.1.0, SVG Export Plug-In . SVG Version: 6.00 Build 0)  -->
<!DOCTYPE svg PUBLIC "-//W3C//DTD SVG 1.1//EN" "http://www.w3.org/Graphics/SVG/1.1/DTD/svg11.dtd">
<svg version="1.1" id="Layer_1" xmlns="http://www.w3.org/2000/svg" xmlns:xlink="http://www.w3.org/1999/xlink" x="0px" y="0px"
	 width="320px" height="320px" viewBox="0 0 320 320" enable-background="new 0 0 320 320" xml:space="preserve">
<g>
	<path fill="#FFFFFF" stroke="#000000" stroke-width="6" stroke-miterlimit="10" d="M281,259.648c0,9.03-7.319,16.352-16.352,16.352
		H55.352C46.321,276,39,268.679,39,259.648V50.352C39,41.32,46.321,34,55.352,34h209.297C273.681,34,281,41.32,281,50.352V259.648z"
		/>
	<path d="M263,194.189c0,5.418-4.393,9.811-9.811,9.811H63.811c-5.418,0-9.811-4.393-9.811-9.811V59.811
		C54,54.393,58.392,50,63.811,50h189.379c5.418,0,9.811,4.393,9.811,9.811V194.189z"/>
</g>
</svg>
